Coordinates
version=1
nRows=8
nColumns=36
inDegrees=yes

Units are S.I. units (second, meters, Newtons, ...)
If the header above contains a line with 'inDegrees', this indicates whether rotational values are in degrees (yes) or radians (no).

endheader
time	pelvis_tilt	pelvis_list	pelvis_rotation	pelvis_tx	pelvis_ty	pelvis_tz	hip_flexion_r	hip_adduction_r	hip_rotation_r	knee_angle_r	knee_angle_r_beta	ankle_angle_r	subtalar_angle_r	mtp_angle_r	hip_flexion_l	hip_adduction_l	hip_rotation_l	knee_angle_l	knee_angle_l_beta	ankle_angle_l	subtalar_angle_l	mtp_angle_l	lumbar_extension	lumbar_bending	lumbar_rotation	arm_flex_r	arm_add_r	arm_rot_r	elbow_flex_r	pro_sup_r	arm_flex_l	arm_add_l	arm_rot_l	elbow_flex_l	pro_sup_l
      0.00000000	     -0.51810919	      0.01995919	     -4.28864473	      0.08607692	      0.89727787	     -0.11475629	      8.86409505	    -14.31858237	    -18.08048791	      4.77648960	      0.08336547	    -17.07179042	    -22.43380149	     -6.70772932	      3.68140916	      3.62137144	     -9.70319975	      2.51501598	      0.04389531	      6.67571557	     -7.41389674	     -6.70772932	     -1.56293571	     -3.47528432	     -3.43901421	     27.89373052	      6.73043904	     60.47291916	    124.56392346	    107.24257158	     26.35570659	      3.07347916	     52.20650245	    121.33443616	    104.99007535
      0.01666670	     -1.31627023	      0.03810128	     -3.64837451	      0.08774230	      0.89365523	     -0.11460931	     10.24466260	    -14.39805512	    -20.31863250	      4.38739945	      0.07657457	    -16.99550712	    -20.74023627	     -6.73385601	      4.49014835	      3.63130462	    -10.56216499	      2.46882220	      0.04308908	      8.01650716	     -7.12834188	     -6.73385601	     -0.37380302	     -3.69604693	     -3.16674728	     27.83452405	      6.84807955	     61.53967171	    125.97776378	    106.76627068	     27.38896929	      2.39628338	     55.06283307	    123.68583719	    104.38058241
      0.03333330	     -1.80810512	      1.27037752	     -3.61968857	      0.08838290	      0.89225253	     -0.11437180	     10.63643686	    -15.39767671	    -21.18728530	      3.30193960	      0.05762972	    -16.79124318	    -19.22708179	     -6.98181102	      5.05923664	      4.88580501	    -10.99146561	      2.56647784	      0.04479349	      8.49823192	     -6.83353651	     -6.98181102	      0.34892858	     -5.17633448	     -2.13205662	     26.31003497	      6.96956246	     61.73288734	    125.75387016	    105.08821576	     27.43567043	      1.71533005	     56.46248337	    125.20979342	     97.71497167
      0.05000000	     -1.80214080	      1.72552084	     -3.29882641	      0.08901478	      0.89186078	     -0.11495527	     10.17103207	    -15.93418280	    -22.62007221	      2.55872561	      0.04465819	    -16.77746323	    -17.90113634	     -7.14001375	      4.79770754	      5.44541220	    -11.05284617	      2.13351555	      0.03723687	      8.20461924	     -6.45397397	     -7.14001375	      0.42527068	     -5.79839555	     -1.50053855	     25.39282928	      7.06107938	     61.94025079	    125.45058465	    103.46150016	     28.10741296	      1.71699850	     57.50794537	    125.46307348	     94.10794407
      0.06666670	     -1.79276154	      1.85554049	     -3.17915277	      0.08966470	      0.89113351	     -0.11593663	      9.88544794	    -16.07119572	    -23.22524151	      2.19857585	      0.03837239	    -17.18661456	    -18.08435720	     -7.20624205	      4.49671699	      5.67326363	    -10.69702400	      1.69835475	      0.02964188	      8.19373510	     -6.23029365	     -7.20624205	      0.52330412	     -5.84405461	     -1.18573391	     24.71028801	      7.21511333	     62.48542795	    125.05422684	     99.32622488	     28.31828186	      1.78061479	     58.48964226	    125.77806433	     90.46026347
      0.08333330	     -1.83226635	      1.78169583	     -2.93015994	      0.09016098	      0.89314621	     -0.11811542	      9.61766740	    -15.85899483	    -24.65078125	      1.89728309	      0.03311384	    -17.40230177	    -17.77787229	     -7.33893245	      4.38591065	      5.69688608	    -10.03158334	      1.30654078	      0.02280344	      7.66580890	     -6.82112409	     -7.33893245	      0.66666800	     -5.71705609	     -0.91002984	     23.95231734	      7.13327589	     62.09822849	    124.57625364	    100.50137652	     28.52234751	      1.99503884	     59.25643615	    125.55406515	     88.18236067
      0.10000000	     -1.76120543	      1.64471348	     -2.89484749	      0.08843011	      0.89152794	     -0.11842349	      9.62445202	    -15.62853377	    -25.43527729	      1.74923233	      0.03052986	    -17.84844186	    -18.41302848	     -7.44441886	      4.29050661	      5.60841275	     -9.92124334	      1.11190587	      0.01940642	      7.61907772	     -6.65794625	     -7.44441886	      0.55020428	     -5.53585180	     -0.57621014	     23.66286477	      7.12724868	     61.74183056	    124.44753742	    100.23852310	     28.83434102	      2.34530944	     59.89019688	    125.40480116	     86.59239419
      0.11666670	     -1.69669359	      1.47436542	     -2.71507806	      0.08833064	      0.89165623	     -0.11865260	      9.56670160	    -15.35963269	    -26.00473727	      1.74611947	      0.03047553	    -18.27170492	    -19.08730526	     -7.45928350	      4.22527375	      5.50674874	     -9.58140121	      0.94397913	      0.01647554	      7.30089102	     -7.03704173	     -7.45928350	      0.45967187	     -5.37415374	     -0.50239899	     23.51747649	      7.09229598	     61.49392187	    124.50205031	     99.60568631	     29.02717325	      2.56056407	     60.24655388	    125.28221710	     85.43761118
